<svg width="22" height="22" viewBox="0 0 22 22" fill="none" xmlns="http://www.w3.org/2000/svg">
<path d="M21.8969 14.9886L13.2021 7.39291L0 7.37915L8.70898 14.9886H21.8969Z" fill="#33794A"/>
<path d="M19.2046 3.66573C17.0286 1.72975 14.0534 0.63916 10.9479 0.63916C7.84239 0.63916 4.8672 1.72975 2.69123 3.66573C1.49872 4.72076 0.580753 5.98817 0 7.38147H21.8958C21.3151 5.98817 20.3971 4.72076 19.2046 3.66573Z" fill="#83AF38"/>
<path d="M0 14.9888C0.593144 16.2999 1.50968 17.4807 2.68441 18.4472C7.24838 22.2257 14.6485 22.2257 19.2125 18.4472C20.3872 17.4807 21.3037 16.2999 21.8969 14.9888L0 14.9888Z" fill="#83AF38"/>
</svg>
